<svg xmlns="http://www.w3.org/2000/svg" width="320" height="240" viewBox="0 0 320 240"><defs><radialGradient id="g"><stop stop-color="#252045"/><stop offset="1" stop-color="#100e20"/></radialGradient></defs><rect width="320" height="240" fill="url(#g)"/><circle cx="125" cy="151" r="1.3" fill="#eee8ff" opacity="0.16"/><circle cx="72" cy="93" r="0.9" fill="#eee8ff" opacity="0.61"/><circle cx="273" cy="71" r="0.6" fill="#eee8ff" opacity="0.35"/><circle cx="108" cy="159" r="0.6" fill="#eee8ff" opacity="0.19"/><circle cx="52" cy="223" r="0.9" fill="#eee8ff" opacity="0.64"/><circle cx="41" cy="24" r="0.9" fill="#eee8ff" opacity="0.46"/><circle cx="65" cy="70" r="1.3" fill="#eee8ff" opacity="0.57"/><circle cx="155" cy="92" r="0.9" fill="#eee8ff" opacity="0.18"/><circle cx="293" cy="31" r="0.9" fill="#eee8ff" opacity="0.46"/><circle cx="150" cy="34" r="0.6" fill="#eee8ff" opacity="0.21"/><circle cx="60" cy="154" r="1.3" fill="#eee8ff" opacity="0.52"/><circle cx="27" cy="35" r="0.9" fill="#eee8ff" opacity="0.42"/><circle cx="249" cy="190" r="0.9" fill="#eee8ff" opacity="0.30"/><circle cx="47" cy="157" r="1.3" fill="#eee8ff" opacity="0.51"/><circle cx="281" cy="128" r="0.9" fill="#eee8ff" opacity="0.37"/><circle cx="185" cy="212" r="0.9" fill="#eee8ff" opacity="0.39"/><circle cx="24" cy="184" r="0.9" fill="#eee8ff" opacity="0.27"/><circle cx="22" cy="158" r="1.3" fill="#eee8ff" opacity="0.17"/><circle cx="309" cy="83" r="0.6" fill="#eee8ff" opacity="0.25"/><circle cx="143" cy="207" r="1.3" fill="#eee8ff" opacity="0.36"/><circle cx="136" cy="160" r="1.3" fill="#eee8ff" opacity="0.46"/><circle cx="184" cy="34" r="0.6" fill="#eee8ff" opacity="0.52"/><circle cx="224" cy="177" r="0.6" fill="#eee8ff" opacity="0.23"/><circle cx="109" cy="211" r="0.6" fill="#eee8ff" opacity="0.45"/><circle cx="71" cy="201" r="0.9" fill="#eee8ff" opacity="0.41"/><circle cx="198" cy="192" r="0.9" fill="#eee8ff" opacity="0.31"/><circle cx="85" cy="41" r="0.9" fill="#eee8ff" opacity="0.31"/><circle cx="305" cy="191" r="0.6" fill="#eee8ff" opacity="0.40"/><circle cx="179" cy="48" r="0.6" fill="#eee8ff" opacity="0.30"/><circle cx="23" cy="53" r="0.6" fill="#eee8ff" opacity="0.25"/><circle cx="216" cy="121" r="0.6" fill="#eee8ff" opacity="0.47"/><circle cx="123" cy="223" r="0.6" fill="#eee8ff" opacity="0.61"/><circle cx="193" cy="230" r="1.3" fill="#eee8ff" opacity="0.36"/><circle cx="151" cy="105" r="0.6" fill="#eee8ff" opacity="0.63"/><circle cx="247" cy="66" r="0.6" fill="#eee8ff" opacity="0.17"/><circle cx="72" cy="62" r="0.6" fill="#eee8ff" opacity="0.35"/><circle cx="256" cy="71" r="31" fill="#ffbb89" opacity=".2"/><ellipse cx="256" cy="71" rx="48" ry="11" transform="rotate(-28 256 71)" fill="none" stroke="#ffbb89" stroke-width="2" opacity=".45"/><text x="24" y="38" fill="#ffbb89" font-family="sans-serif" font-size="11" letter-spacing="2">FLASH</text><text fill="#f5f0ff" font-family="sans-serif" font-weight="700" font-size="21"><tspan x="24" y="132">1 On 1 Soccer</tspan></text></svg>