<svg xmlns="http://www.w3.org/2000/svg" width="320" height="240" viewBox="0 0 320 240"><defs><radialGradient id="g"><stop stop-color="#252045"/><stop offset="1" stop-color="#100e20"/></radialGradient></defs><rect width="320" height="240" fill="url(#g)"/><circle cx="98" cy="209" r="1.3" fill="#eee8ff" opacity="0.62"/><circle cx="233" cy="167" r="1.3" fill="#eee8ff" opacity="0.50"/><circle cx="63" cy="186" r="0.6" fill="#eee8ff" opacity="0.31"/><circle cx="229" cy="220" r="1.3" fill="#eee8ff" opacity="0.22"/><circle cx="245" cy="16" r="0.6" fill="#eee8ff" opacity="0.25"/><circle cx="7" cy="237" r="1.3" fill="#eee8ff" opacity="0.53"/><circle cx="285" cy="185" r="0.9" fill="#eee8ff" opacity="0.24"/><circle cx="192" cy="210" r="0.9" fill="#eee8ff" opacity="0.49"/><circle cx="302" cy="92" r="0.6" fill="#eee8ff" opacity="0.49"/><circle cx="311" cy="136" r="0.6" fill="#eee8ff" opacity="0.50"/><circle cx="315" cy="210" r="0.9" fill="#eee8ff" opacity="0.63"/><circle cx="125" cy="140" r="1.3" fill="#eee8ff" opacity="0.34"/><circle cx="42" cy="89" r="1.3" fill="#eee8ff" opacity="0.24"/><circle cx="269" cy="15" r="0.6" fill="#eee8ff" opacity="0.19"/><circle cx="194" cy="147" r="0.6" fill="#eee8ff" opacity="0.26"/><circle cx="295" cy="11" r="0.9" fill="#eee8ff" opacity="0.27"/><circle cx="103" cy="125" r="1.3" fill="#eee8ff" opacity="0.28"/><circle cx="318" cy="23" r="0.9" fill="#eee8ff" opacity="0.26"/><circle cx="148" cy="168" r="0.9" fill="#eee8ff" opacity="0.30"/><circle cx="242" cy="234" r="1.3" fill="#eee8ff" opacity="0.42"/><circle cx="136" cy="185" r="0.6" fill="#eee8ff" opacity="0.23"/><circle cx="162" cy="172" r="0.9" fill="#eee8ff" opacity="0.41"/><circle cx="99" cy="187" r="0.6" fill="#eee8ff" opacity="0.62"/><circle cx="156" cy="106" r="0.9" fill="#eee8ff" opacity="0.34"/><circle cx="201" cy="199" r="0.9" fill="#eee8ff" opacity="0.56"/><circle cx="78" cy="195" r="1.3" fill="#eee8ff" opacity="0.49"/><circle cx="237" cy="45" r="0.6" fill="#eee8ff" opacity="0.18"/><circle cx="261" cy="136" r="0.6" fill="#eee8ff" opacity="0.47"/><circle cx="233" cy="3" r="0.9" fill="#eee8ff" opacity="0.46"/><circle cx="107" cy="99" r="1.3" fill="#eee8ff" opacity="0.37"/><circle cx="125" cy="101" r="0.6" fill="#eee8ff" opacity="0.46"/><circle cx="43" cy="83" r="1.3" fill="#eee8ff" opacity="0.48"/><circle cx="286" cy="70" r="1.3" fill="#eee8ff" opacity="0.48"/><circle cx="296" cy="33" r="0.6" fill="#eee8ff" opacity="0.38"/><circle cx="239" cy="49" r="1.3" fill="#eee8ff" opacity="0.44"/><circle cx="265" cy="227" r="0.6" fill="#eee8ff" opacity="0.25"/><circle cx="256" cy="71" r="31" fill="#84e1cd" opacity=".2"/><ellipse cx="256" cy="71" rx="48" ry="11" transform="rotate(-28 256 71)" fill="none" stroke="#84e1cd" stroke-width="2" opacity=".45"/><text x="24" y="38" fill="#84e1cd" font-family="sans-serif" font-size="11" letter-spacing="2">COLEÇÃO G+</text><text fill="#f5f0ff" font-family="sans-serif" font-weight="700" font-size="21"><tspan x="24" y="132">67 Clicker</tspan></text></svg>