<svg xmlns="http://www.w3.org/2000/svg" width="320" height="240" viewBox="0 0 320 240"><defs><radialGradient id="g"><stop stop-color="#252045"/><stop offset="1" stop-color="#100e20"/></radialGradient></defs><rect width="320" height="240" fill="url(#g)"/><circle cx="87" cy="31" r="0.9" fill="#eee8ff" opacity="0.29"/><circle cx="273" cy="170" r="1.3" fill="#eee8ff" opacity="0.56"/><circle cx="154" cy="214" r="0.6" fill="#eee8ff" opacity="0.52"/><circle cx="116" cy="52" r="0.9" fill="#eee8ff" opacity="0.49"/><circle cx="153" cy="12" r="0.9" fill="#eee8ff" opacity="0.24"/><circle cx="28" cy="119" r="0.9" fill="#eee8ff" opacity="0.19"/><circle cx="123" cy="28" r="0.6" fill="#eee8ff" opacity="0.35"/><circle cx="268" cy="200" r="0.6" fill="#eee8ff" opacity="0.60"/><circle cx="48" cy="40" r="0.9" fill="#eee8ff" opacity="0.48"/><circle cx="293" cy="79" r="0.9" fill="#eee8ff" opacity="0.21"/><circle cx="155" cy="135" r="0.9" fill="#eee8ff" opacity="0.59"/><circle cx="168" cy="185" r="0.6" fill="#eee8ff" opacity="0.44"/><circle cx="222" cy="107" r="0.9" fill="#eee8ff" opacity="0.57"/><circle cx="155" cy="114" r="0.6" fill="#eee8ff" opacity="0.64"/><circle cx="73" cy="143" r="0.6" fill="#eee8ff" opacity="0.37"/><circle cx="189" cy="49" r="0.9" fill="#eee8ff" opacity="0.57"/><circle cx="319" cy="239" r="0.6" fill="#eee8ff" opacity="0.18"/><circle cx="81" cy="98" r="0.9" fill="#eee8ff" opacity="0.61"/><circle cx="192" cy="220" r="1.3" fill="#eee8ff" opacity="0.50"/><circle cx="133" cy="181" r="0.9" fill="#eee8ff" opacity="0.30"/><circle cx="285" cy="87" r="1.3" fill="#eee8ff" opacity="0.52"/><circle cx="128" cy="107" r="0.9" fill="#eee8ff" opacity="0.18"/><circle cx="194" cy="49" r="0.6" fill="#eee8ff" opacity="0.25"/><circle cx="46" cy="73" r="0.9" fill="#eee8ff" opacity="0.45"/><circle cx="19" cy="118" r="1.3" fill="#eee8ff" opacity="0.28"/><circle cx="301" cy="217" r="1.3" fill="#eee8ff" opacity="0.58"/><circle cx="315" cy="70" r="0.6" fill="#eee8ff" opacity="0.52"/><circle cx="289" cy="200" r="0.6" fill="#eee8ff" opacity="0.46"/><circle cx="176" cy="115" r="0.6" fill="#eee8ff" opacity="0.31"/><circle cx="279" cy="128" r="0.9" fill="#eee8ff" opacity="0.37"/><circle cx="25" cy="182" r="0.9" fill="#eee8ff" opacity="0.30"/><circle cx="128" cy="216" r="0.9" fill="#eee8ff" opacity="0.47"/><circle cx="166" cy="64" r="1.3" fill="#eee8ff" opacity="0.20"/><circle cx="6" cy="158" r="0.9" fill="#eee8ff" opacity="0.53"/><circle cx="94" cy="81" r="1.3" fill="#eee8ff" opacity="0.52"/><circle cx="117" cy="19" r="1.3" fill="#eee8ff" opacity="0.43"/><circle cx="256" cy="71" r="31" fill="#9cbcff" opacity=".2"/><ellipse cx="256" cy="71" rx="48" ry="11" transform="rotate(-28 256 71)" fill="none" stroke="#9cbcff" stroke-width="2" opacity=".45"/><text x="24" y="38" fill="#9cbcff" font-family="sans-serif" font-size="11" letter-spacing="2">FLASH</text><text fill="#f5f0ff" font-family="sans-serif" font-weight="700" font-size="21"><tspan x="24" y="132">Ben 10 Adventure Ride</tspan></text></svg>