<svg xmlns="http://www.w3.org/2000/svg" width="320" height="240" viewBox="0 0 320 240"><defs><radialGradient id="g"><stop stop-color="#252045"/><stop offset="1" stop-color="#100e20"/></radialGradient></defs><rect width="320" height="240" fill="url(#g)"/><circle cx="25" cy="30" r="0.6" fill="#eee8ff" opacity="0.59"/><circle cx="9" cy="170" r="0.6" fill="#eee8ff" opacity="0.26"/><circle cx="228" cy="39" r="0.9" fill="#eee8ff" opacity="0.16"/><circle cx="284" cy="68" r="0.9" fill="#eee8ff" opacity="0.19"/><circle cx="221" cy="205" r="1.3" fill="#eee8ff" opacity="0.45"/><circle cx="97" cy="217" r="0.6" fill="#eee8ff" opacity="0.47"/><circle cx="255" cy="162" r="1.3" fill="#eee8ff" opacity="0.57"/><circle cx="254" cy="47" r="1.3" fill="#eee8ff" opacity="0.36"/><circle cx="291" cy="133" r="0.6" fill="#eee8ff" opacity="0.34"/><circle cx="159" cy="182" r="0.9" fill="#eee8ff" opacity="0.38"/><circle cx="204" cy="210" r="0.9" fill="#eee8ff" opacity="0.42"/><circle cx="193" cy="138" r="1.3" fill="#eee8ff" opacity="0.57"/><circle cx="186" cy="185" r="0.6" fill="#eee8ff" opacity="0.27"/><circle cx="215" cy="32" r="1.3" fill="#eee8ff" opacity="0.60"/><circle cx="72" cy="130" r="1.3" fill="#eee8ff" opacity="0.40"/><circle cx="179" cy="176" r="0.9" fill="#eee8ff" opacity="0.25"/><circle cx="8" cy="129" r="1.3" fill="#eee8ff" opacity="0.24"/><circle cx="85" cy="144" r="1.3" fill="#eee8ff" opacity="0.19"/><circle cx="103" cy="204" r="1.3" fill="#eee8ff" opacity="0.62"/><circle cx="200" cy="43" r="0.6" fill="#eee8ff" opacity="0.34"/><circle cx="223" cy="107" r="1.3" fill="#eee8ff" opacity="0.48"/><circle cx="166" cy="73" r="0.6" fill="#eee8ff" opacity="0.30"/><circle cx="137" cy="55" r="0.6" fill="#eee8ff" opacity="0.65"/><circle cx="65" cy="49" r="1.3" fill="#eee8ff" opacity="0.19"/><circle cx="97" cy="113" r="1.3" fill="#eee8ff" opacity="0.43"/><circle cx="227" cy="92" r="0.6" fill="#eee8ff" opacity="0.27"/><circle cx="213" cy="96" r="0.6" fill="#eee8ff" opacity="0.39"/><circle cx="122" cy="80" r="0.9" fill="#eee8ff" opacity="0.50"/><circle cx="27" cy="31" r="0.9" fill="#eee8ff" opacity="0.20"/><circle cx="271" cy="136" r="1.3" fill="#eee8ff" opacity="0.42"/><circle cx="131" cy="53" r="0.6" fill="#eee8ff" opacity="0.41"/><circle cx="214" cy="160" r="0.9" fill="#eee8ff" opacity="0.33"/><circle cx="254" cy="93" r="0.9" fill="#eee8ff" opacity="0.41"/><circle cx="143" cy="81" r="0.6" fill="#eee8ff" opacity="0.53"/><circle cx="60" cy="119" r="0.6" fill="#eee8ff" opacity="0.16"/><circle cx="307" cy="224" r="0.6" fill="#eee8ff" opacity="0.37"/><circle cx="256" cy="71" r="31" fill="#84e1cd" opacity=".2"/><ellipse cx="256" cy="71" rx="48" ry="11" transform="rotate(-28 256 71)" fill="none" stroke="#84e1cd" stroke-width="2" opacity=".45"/><text x="24" y="38" fill="#84e1cd" font-family="sans-serif" font-size="11" letter-spacing="2">FLASH</text><text fill="#f5f0ff" font-family="sans-serif" font-weight="700" font-size="21"><tspan x="24" y="132">Big Truck Adventures 2</tspan></text></svg>