<svg xmlns="http://www.w3.org/2000/svg" width="320" height="240" viewBox="0 0 320 240"><defs><radialGradient id="g"><stop stop-color="#252045"/><stop offset="1" stop-color="#100e20"/></radialGradient></defs><rect width="320" height="240" fill="url(#g)"/><circle cx="209" cy="40" r="0.6" fill="#eee8ff" opacity="0.27"/><circle cx="182" cy="87" r="0.9" fill="#eee8ff" opacity="0.16"/><circle cx="298" cy="144" r="1.3" fill="#eee8ff" opacity="0.17"/><circle cx="94" cy="214" r="0.9" fill="#eee8ff" opacity="0.59"/><circle cx="303" cy="188" r="0.6" fill="#eee8ff" opacity="0.15"/><circle cx="297" cy="53" r="0.9" fill="#eee8ff" opacity="0.26"/><circle cx="126" cy="170" r="1.3" fill="#eee8ff" opacity="0.57"/><circle cx="160" cy="198" r="0.9" fill="#eee8ff" opacity="0.31"/><circle cx="156" cy="89" r="0.6" fill="#eee8ff" opacity="0.41"/><circle cx="157" cy="57" r="1.3" fill="#eee8ff" opacity="0.42"/><circle cx="8" cy="45" r="0.9" fill="#eee8ff" opacity="0.25"/><circle cx="155" cy="16" r="0.9" fill="#eee8ff" opacity="0.37"/><circle cx="220" cy="174" r="0.6" fill="#eee8ff" opacity="0.34"/><circle cx="259" cy="138" r="0.6" fill="#eee8ff" opacity="0.42"/><circle cx="229" cy="148" r="1.3" fill="#eee8ff" opacity="0.51"/><circle cx="295" cy="178" r="0.9" fill="#eee8ff" opacity="0.32"/><circle cx="27" cy="143" r="0.9" fill="#eee8ff" opacity="0.38"/><circle cx="318" cy="205" r="0.9" fill="#eee8ff" opacity="0.19"/><circle cx="217" cy="49" r="0.9" fill="#eee8ff" opacity="0.18"/><circle cx="106" cy="66" r="0.9" fill="#eee8ff" opacity="0.19"/><circle cx="298" cy="21" r="0.6" fill="#eee8ff" opacity="0.60"/><circle cx="89" cy="162" r="0.9" fill="#eee8ff" opacity="0.33"/><circle cx="3" cy="238" r="0.6" fill="#eee8ff" opacity="0.56"/><circle cx="57" cy="122" r="1.3" fill="#eee8ff" opacity="0.32"/><circle cx="129" cy="146" r="0.9" fill="#eee8ff" opacity="0.36"/><circle cx="156" cy="52" r="1.3" fill="#eee8ff" opacity="0.21"/><circle cx="40" cy="204" r="1.3" fill="#eee8ff" opacity="0.47"/><circle cx="102" cy="238" r="0.6" fill="#eee8ff" opacity="0.43"/><circle cx="15" cy="217" r="0.9" fill="#eee8ff" opacity="0.32"/><circle cx="266" cy="4" r="0.6" fill="#eee8ff" opacity="0.31"/><circle cx="131" cy="99" r="0.6" fill="#eee8ff" opacity="0.23"/><circle cx="121" cy="155" r="0.6" fill="#eee8ff" opacity="0.33"/><circle cx="41" cy="75" r="0.6" fill="#eee8ff" opacity="0.19"/><circle cx="53" cy="232" r="0.9" fill="#eee8ff" opacity="0.48"/><circle cx="249" cy="134" r="0.9" fill="#eee8ff" opacity="0.20"/><circle cx="31" cy="172" r="1.3" fill="#eee8ff" opacity="0.33"/><circle cx="256" cy="71" r="31" fill="#9cbcff" opacity=".2"/><ellipse cx="256" cy="71" rx="48" ry="11" transform="rotate(-28 256 71)" fill="none" stroke="#9cbcff" stroke-width="2" opacity=".45"/><text x="24" y="38" fill="#9cbcff" font-family="sans-serif" font-size="11" letter-spacing="2">FLASH</text><text fill="#f5f0ff" font-family="sans-serif" font-weight="700" font-size="21"><tspan x="24" y="132">Bleach vs Naruto</tspan></text></svg>