<svg xmlns="http://www.w3.org/2000/svg" width="320" height="240" viewBox="0 0 320 240"><defs><radialGradient id="g"><stop stop-color="#252045"/><stop offset="1" stop-color="#100e20"/></radialGradient></defs><rect width="320" height="240" fill="url(#g)"/><circle cx="312" cy="219" r="0.6" fill="#eee8ff" opacity="0.30"/><circle cx="145" cy="22" r="0.9" fill="#eee8ff" opacity="0.63"/><circle cx="31" cy="184" r="0.9" fill="#eee8ff" opacity="0.22"/><circle cx="122" cy="170" r="0.6" fill="#eee8ff" opacity="0.46"/><circle cx="123" cy="166" r="0.6" fill="#eee8ff" opacity="0.51"/><circle cx="134" cy="182" r="0.6" fill="#eee8ff" opacity="0.41"/><circle cx="3" cy="172" r="0.6" fill="#eee8ff" opacity="0.52"/><circle cx="250" cy="226" r="0.6" fill="#eee8ff" opacity="0.41"/><circle cx="209" cy="173" r="0.6" fill="#eee8ff" opacity="0.20"/><circle cx="98" cy="123" r="1.3" fill="#eee8ff" opacity="0.24"/><circle cx="91" cy="219" r="1.3" fill="#eee8ff" opacity="0.16"/><circle cx="20" cy="168" r="0.9" fill="#eee8ff" opacity="0.28"/><circle cx="61" cy="182" r="1.3" fill="#eee8ff" opacity="0.45"/><circle cx="37" cy="1" r="1.3" fill="#eee8ff" opacity="0.26"/><circle cx="261" cy="174" r="0.6" fill="#eee8ff" opacity="0.25"/><circle cx="13" cy="202" r="0.6" fill="#eee8ff" opacity="0.22"/><circle cx="272" cy="63" r="0.9" fill="#eee8ff" opacity="0.28"/><circle cx="58" cy="71" r="0.6" fill="#eee8ff" opacity="0.64"/><circle cx="211" cy="154" r="0.9" fill="#eee8ff" opacity="0.37"/><circle cx="299" cy="227" r="1.3" fill="#eee8ff" opacity="0.51"/><circle cx="221" cy="137" r="0.9" fill="#eee8ff" opacity="0.45"/><circle cx="267" cy="162" r="0.9" fill="#eee8ff" opacity="0.55"/><circle cx="66" cy="82" r="0.6" fill="#eee8ff" opacity="0.58"/><circle cx="218" cy="21" r="0.6" fill="#eee8ff" opacity="0.25"/><circle cx="29" cy="49" r="0.9" fill="#eee8ff" opacity="0.18"/><circle cx="260" cy="60" r="1.3" fill="#eee8ff" opacity="0.42"/><circle cx="41" cy="53" r="0.9" fill="#eee8ff" opacity="0.41"/><circle cx="55" cy="144" r="1.3" fill="#eee8ff" opacity="0.49"/><circle cx="86" cy="114" r="0.6" fill="#eee8ff" opacity="0.56"/><circle cx="56" cy="199" r="1.3" fill="#eee8ff" opacity="0.57"/><circle cx="123" cy="174" r="0.6" fill="#eee8ff" opacity="0.41"/><circle cx="253" cy="35" r="1.3" fill="#eee8ff" opacity="0.28"/><circle cx="253" cy="27" r="0.6" fill="#eee8ff" opacity="0.22"/><circle cx="101" cy="98" r="0.9" fill="#eee8ff" opacity="0.56"/><circle cx="163" cy="72" r="0.9" fill="#eee8ff" opacity="0.55"/><circle cx="236" cy="21" r="0.6" fill="#eee8ff" opacity="0.41"/><circle cx="256" cy="71" r="31" fill="#84e1cd" opacity=".2"/><ellipse cx="256" cy="71" rx="48" ry="11" transform="rotate(-28 256 71)" fill="none" stroke="#84e1cd" stroke-width="2" opacity=".45"/><text x="24" y="38" fill="#84e1cd" font-family="sans-serif" font-size="11" letter-spacing="2">COLEÇÃO G+</text><text fill="#f5f0ff" font-family="sans-serif" font-weight="700" font-size="21"><tspan x="24" y="132">Blood tournament</tspan></text></svg>