<svg xmlns="http://www.w3.org/2000/svg" width="320" height="240" viewBox="0 0 320 240"><defs><radialGradient id="g"><stop stop-color="#252045"/><stop offset="1" stop-color="#100e20"/></radialGradient></defs><rect width="320" height="240" fill="url(#g)"/><circle cx="168" cy="171" r="0.6" fill="#eee8ff" opacity="0.22"/><circle cx="85" cy="81" r="1.3" fill="#eee8ff" opacity="0.42"/><circle cx="242" cy="120" r="1.3" fill="#eee8ff" opacity="0.32"/><circle cx="90" cy="92" r="0.9" fill="#eee8ff" opacity="0.46"/><circle cx="252" cy="42" r="1.3" fill="#eee8ff" opacity="0.27"/><circle cx="203" cy="42" r="1.3" fill="#eee8ff" opacity="0.62"/><circle cx="51" cy="167" r="0.9" fill="#eee8ff" opacity="0.49"/><circle cx="288" cy="13" r="1.3" fill="#eee8ff" opacity="0.31"/><circle cx="161" cy="162" r="1.3" fill="#eee8ff" opacity="0.21"/><circle cx="170" cy="56" r="0.9" fill="#eee8ff" opacity="0.62"/><circle cx="182" cy="8" r="1.3" fill="#eee8ff" opacity="0.40"/><circle cx="300" cy="74" r="0.6" fill="#eee8ff" opacity="0.40"/><circle cx="314" cy="69" r="1.3" fill="#eee8ff" opacity="0.62"/><circle cx="173" cy="21" r="0.6" fill="#eee8ff" opacity="0.18"/><circle cx="95" cy="38" r="0.9" fill="#eee8ff" opacity="0.16"/><circle cx="180" cy="142" r="1.3" fill="#eee8ff" opacity="0.33"/><circle cx="126" cy="87" r="0.6" fill="#eee8ff" opacity="0.48"/><circle cx="262" cy="45" r="0.6" fill="#eee8ff" opacity="0.52"/><circle cx="164" cy="184" r="1.3" fill="#eee8ff" opacity="0.48"/><circle cx="202" cy="62" r="1.3" fill="#eee8ff" opacity="0.23"/><circle cx="180" cy="61" r="1.3" fill="#eee8ff" opacity="0.36"/><circle cx="120" cy="77" r="0.9" fill="#eee8ff" opacity="0.15"/><circle cx="0" cy="88" r="1.3" fill="#eee8ff" opacity="0.21"/><circle cx="8" cy="117" r="0.9" fill="#eee8ff" opacity="0.18"/><circle cx="152" cy="131" r="1.3" fill="#eee8ff" opacity="0.59"/><circle cx="303" cy="214" r="0.6" fill="#eee8ff" opacity="0.55"/><circle cx="108" cy="208" r="1.3" fill="#eee8ff" opacity="0.33"/><circle cx="245" cy="158" r="0.6" fill="#eee8ff" opacity="0.29"/><circle cx="115" cy="41" r="1.3" fill="#eee8ff" opacity="0.53"/><circle cx="161" cy="97" r="0.6" fill="#eee8ff" opacity="0.18"/><circle cx="309" cy="212" r="0.9" fill="#eee8ff" opacity="0.21"/><circle cx="236" cy="237" r="1.3" fill="#eee8ff" opacity="0.16"/><circle cx="185" cy="3" r="0.9" fill="#eee8ff" opacity="0.28"/><circle cx="57" cy="90" r="0.9" fill="#eee8ff" opacity="0.48"/><circle cx="107" cy="171" r="1.3" fill="#eee8ff" opacity="0.18"/><circle cx="238" cy="11" r="0.9" fill="#eee8ff" opacity="0.20"/><circle cx="256" cy="71" r="31" fill="#ffbb89" opacity=".2"/><ellipse cx="256" cy="71" rx="48" ry="11" transform="rotate(-28 256 71)" fill="none" stroke="#ffbb89" stroke-width="2" opacity=".45"/><text x="24" y="38" fill="#ffbb89" font-family="sans-serif" font-size="11" letter-spacing="2">COLEÇÃO G+</text><text fill="#f5f0ff" font-family="sans-serif" font-weight="700" font-size="21"><tspan x="24" y="132">BM</tspan></text></svg>