<svg xmlns="http://www.w3.org/2000/svg" width="320" height="240" viewBox="0 0 320 240"><defs><radialGradient id="g"><stop stop-color="#252045"/><stop offset="1" stop-color="#100e20"/></radialGradient></defs><rect width="320" height="240" fill="url(#g)"/><circle cx="213" cy="107" r="0.6" fill="#eee8ff" opacity="0.23"/><circle cx="8" cy="130" r="0.9" fill="#eee8ff" opacity="0.19"/><circle cx="106" cy="49" r="1.3" fill="#eee8ff" opacity="0.57"/><circle cx="103" cy="152" r="0.9" fill="#eee8ff" opacity="0.36"/><circle cx="218" cy="163" r="0.9" fill="#eee8ff" opacity="0.45"/><circle cx="284" cy="85" r="0.6" fill="#eee8ff" opacity="0.42"/><circle cx="108" cy="63" r="1.3" fill="#eee8ff" opacity="0.62"/><circle cx="87" cy="214" r="0.6" fill="#eee8ff" opacity="0.35"/><circle cx="300" cy="44" r="0.6" fill="#eee8ff" opacity="0.46"/><circle cx="155" cy="66" r="0.9" fill="#eee8ff" opacity="0.62"/><circle cx="142" cy="220" r="0.9" fill="#eee8ff" opacity="0.61"/><circle cx="73" cy="171" r="0.9" fill="#eee8ff" opacity="0.48"/><circle cx="139" cy="43" r="1.3" fill="#eee8ff" opacity="0.31"/><circle cx="72" cy="122" r="0.9" fill="#eee8ff" opacity="0.17"/><circle cx="257" cy="224" r="1.3" fill="#eee8ff" opacity="0.44"/><circle cx="113" cy="152" r="1.3" fill="#eee8ff" opacity="0.26"/><circle cx="40" cy="223" r="1.3" fill="#eee8ff" opacity="0.30"/><circle cx="202" cy="22" r="0.9" fill="#eee8ff" opacity="0.46"/><circle cx="2" cy="13" r="0.9" fill="#eee8ff" opacity="0.54"/><circle cx="176" cy="157" r="0.9" fill="#eee8ff" opacity="0.38"/><circle cx="132" cy="225" r="0.9" fill="#eee8ff" opacity="0.41"/><circle cx="22" cy="130" r="1.3" fill="#eee8ff" opacity="0.28"/><circle cx="6" cy="83" r="1.3" fill="#eee8ff" opacity="0.19"/><circle cx="128" cy="205" r="1.3" fill="#eee8ff" opacity="0.32"/><circle cx="283" cy="79" r="0.6" fill="#eee8ff" opacity="0.21"/><circle cx="266" cy="233" r="1.3" fill="#eee8ff" opacity="0.44"/><circle cx="27" cy="34" r="0.9" fill="#eee8ff" opacity="0.42"/><circle cx="66" cy="159" r="1.3" fill="#eee8ff" opacity="0.61"/><circle cx="83" cy="211" r="1.3" fill="#eee8ff" opacity="0.52"/><circle cx="69" cy="186" r="1.3" fill="#eee8ff" opacity="0.59"/><circle cx="21" cy="113" r="1.3" fill="#eee8ff" opacity="0.32"/><circle cx="79" cy="219" r="0.6" fill="#eee8ff" opacity="0.61"/><circle cx="89" cy="205" r="0.6" fill="#eee8ff" opacity="0.37"/><circle cx="65" cy="150" r="1.3" fill="#eee8ff" opacity="0.35"/><circle cx="82" cy="189" r="0.6" fill="#eee8ff" opacity="0.52"/><circle cx="67" cy="108" r="0.9" fill="#eee8ff" opacity="0.60"/><circle cx="256" cy="71" r="31" fill="#ffbb89" opacity=".2"/><ellipse cx="256" cy="71" rx="48" ry="11" transform="rotate(-28 256 71)" fill="none" stroke="#ffbb89" stroke-width="2" opacity=".45"/><text x="24" y="38" fill="#ffbb89" font-family="sans-serif" font-size="11" letter-spacing="2">FLASH</text><text fill="#f5f0ff" font-family="sans-serif" font-weight="700" font-size="21"><tspan x="24" y="132">Doom 2D</tspan></text></svg>