<svg xmlns="http://www.w3.org/2000/svg" width="320" height="240" viewBox="0 0 320 240"><defs><radialGradient id="g"><stop stop-color="#252045"/><stop offset="1" stop-color="#100e20"/></radialGradient></defs><rect width="320" height="240" fill="url(#g)"/><circle cx="97" cy="170" r="0.9" fill="#eee8ff" opacity="0.20"/><circle cx="166" cy="20" r="1.3" fill="#eee8ff" opacity="0.23"/><circle cx="160" cy="90" r="0.6" fill="#eee8ff" opacity="0.32"/><circle cx="4" cy="26" r="0.9" fill="#eee8ff" opacity="0.40"/><circle cx="61" cy="39" r="0.6" fill="#eee8ff" opacity="0.45"/><circle cx="43" cy="207" r="0.6" fill="#eee8ff" opacity="0.60"/><circle cx="80" cy="218" r="1.3" fill="#eee8ff" opacity="0.37"/><circle cx="208" cy="133" r="1.3" fill="#eee8ff" opacity="0.15"/><circle cx="36" cy="124" r="0.9" fill="#eee8ff" opacity="0.24"/><circle cx="176" cy="208" r="1.3" fill="#eee8ff" opacity="0.41"/><circle cx="250" cy="54" r="1.3" fill="#eee8ff" opacity="0.45"/><circle cx="248" cy="30" r="0.6" fill="#eee8ff" opacity="0.31"/><circle cx="133" cy="216" r="0.9" fill="#eee8ff" opacity="0.61"/><circle cx="154" cy="69" r="0.6" fill="#eee8ff" opacity="0.52"/><circle cx="117" cy="150" r="0.9" fill="#eee8ff" opacity="0.59"/><circle cx="167" cy="235" r="0.9" fill="#eee8ff" opacity="0.19"/><circle cx="50" cy="122" r="0.9" fill="#eee8ff" opacity="0.31"/><circle cx="75" cy="177" r="0.9" fill="#eee8ff" opacity="0.62"/><circle cx="123" cy="49" r="0.9" fill="#eee8ff" opacity="0.41"/><circle cx="146" cy="26" r="1.3" fill="#eee8ff" opacity="0.20"/><circle cx="39" cy="68" r="0.9" fill="#eee8ff" opacity="0.50"/><circle cx="111" cy="88" r="1.3" fill="#eee8ff" opacity="0.64"/><circle cx="24" cy="194" r="1.3" fill="#eee8ff" opacity="0.34"/><circle cx="183" cy="147" r="0.6" fill="#eee8ff" opacity="0.50"/><circle cx="269" cy="149" r="1.3" fill="#eee8ff" opacity="0.43"/><circle cx="25" cy="229" r="1.3" fill="#eee8ff" opacity="0.15"/><circle cx="181" cy="51" r="0.9" fill="#eee8ff" opacity="0.37"/><circle cx="131" cy="198" r="1.3" fill="#eee8ff" opacity="0.36"/><circle cx="236" cy="120" r="0.9" fill="#eee8ff" opacity="0.54"/><circle cx="236" cy="217" r="1.3" fill="#eee8ff" opacity="0.56"/><circle cx="12" cy="61" r="1.3" fill="#eee8ff" opacity="0.40"/><circle cx="195" cy="207" r="0.9" fill="#eee8ff" opacity="0.49"/><circle cx="276" cy="77" r="0.9" fill="#eee8ff" opacity="0.27"/><circle cx="115" cy="103" r="0.6" fill="#eee8ff" opacity="0.54"/><circle cx="233" cy="232" r="0.9" fill="#eee8ff" opacity="0.19"/><circle cx="176" cy="214" r="0.6" fill="#eee8ff" opacity="0.29"/><circle cx="256" cy="71" r="31" fill="#ffbb89" opacity=".2"/><ellipse cx="256" cy="71" rx="48" ry="11" transform="rotate(-28 256 71)" fill="none" stroke="#ffbb89" stroke-width="2" opacity=".45"/><text x="24" y="38" fill="#ffbb89" font-family="sans-serif" font-size="11" letter-spacing="2">FLASH</text><text fill="#f5f0ff" font-family="sans-serif" font-weight="700" font-size="21"><tspan x="24" y="132">Electric Box 2</tspan></text></svg>