<svg xmlns="http://www.w3.org/2000/svg" width="320" height="240" viewBox="0 0 320 240"><defs><radialGradient id="g"><stop stop-color="#252045"/><stop offset="1" stop-color="#100e20"/></radialGradient></defs><rect width="320" height="240" fill="url(#g)"/><circle cx="17" cy="204" r="0.9" fill="#eee8ff" opacity="0.44"/><circle cx="240" cy="70" r="0.6" fill="#eee8ff" opacity="0.32"/><circle cx="83" cy="77" r="1.3" fill="#eee8ff" opacity="0.61"/><circle cx="281" cy="133" r="1.3" fill="#eee8ff" opacity="0.16"/><circle cx="193" cy="125" r="0.9" fill="#eee8ff" opacity="0.37"/><circle cx="261" cy="122" r="1.3" fill="#eee8ff" opacity="0.25"/><circle cx="55" cy="134" r="0.6" fill="#eee8ff" opacity="0.29"/><circle cx="133" cy="53" r="1.3" fill="#eee8ff" opacity="0.28"/><circle cx="31" cy="87" r="0.9" fill="#eee8ff" opacity="0.62"/><circle cx="68" cy="235" r="0.6" fill="#eee8ff" opacity="0.21"/><circle cx="258" cy="127" r="0.6" fill="#eee8ff" opacity="0.17"/><circle cx="113" cy="37" r="0.6" fill="#eee8ff" opacity="0.25"/><circle cx="101" cy="216" r="0.9" fill="#eee8ff" opacity="0.46"/><circle cx="81" cy="227" r="1.3" fill="#eee8ff" opacity="0.20"/><circle cx="9" cy="95" r="0.9" fill="#eee8ff" opacity="0.63"/><circle cx="123" cy="204" r="1.3" fill="#eee8ff" opacity="0.63"/><circle cx="265" cy="194" r="0.9" fill="#eee8ff" opacity="0.60"/><circle cx="192" cy="223" r="0.9" fill="#eee8ff" opacity="0.47"/><circle cx="169" cy="20" r="1.3" fill="#eee8ff" opacity="0.38"/><circle cx="170" cy="181" r="0.9" fill="#eee8ff" opacity="0.62"/><circle cx="183" cy="43" r="0.9" fill="#eee8ff" opacity="0.32"/><circle cx="16" cy="108" r="1.3" fill="#eee8ff" opacity="0.57"/><circle cx="174" cy="96" r="0.6" fill="#eee8ff" opacity="0.57"/><circle cx="218" cy="134" r="0.6" fill="#eee8ff" opacity="0.24"/><circle cx="188" cy="81" r="0.9" fill="#eee8ff" opacity="0.51"/><circle cx="151" cy="88" r="0.6" fill="#eee8ff" opacity="0.22"/><circle cx="102" cy="215" r="0.9" fill="#eee8ff" opacity="0.48"/><circle cx="250" cy="57" r="1.3" fill="#eee8ff" opacity="0.17"/><circle cx="2" cy="89" r="0.6" fill="#eee8ff" opacity="0.58"/><circle cx="93" cy="195" r="0.9" fill="#eee8ff" opacity="0.48"/><circle cx="250" cy="193" r="0.6" fill="#eee8ff" opacity="0.20"/><circle cx="291" cy="93" r="0.9" fill="#eee8ff" opacity="0.42"/><circle cx="228" cy="141" r="0.9" fill="#eee8ff" opacity="0.41"/><circle cx="93" cy="190" r="0.6" fill="#eee8ff" opacity="0.52"/><circle cx="72" cy="99" r="0.6" fill="#eee8ff" opacity="0.20"/><circle cx="276" cy="218" r="1.3" fill="#eee8ff" opacity="0.54"/><circle cx="256" cy="71" r="31" fill="#9cbcff" opacity=".2"/><ellipse cx="256" cy="71" rx="48" ry="11" transform="rotate(-28 256 71)" fill="none" stroke="#9cbcff" stroke-width="2" opacity=".45"/><text x="24" y="38" fill="#9cbcff" font-family="sans-serif" font-size="11" letter-spacing="2">FLASH</text><text fill="#f5f0ff" font-family="sans-serif" font-weight="700" font-size="21"><tspan x="24" y="132">Hobo 3 Wanted</tspan></text></svg>