<svg xmlns="http://www.w3.org/2000/svg" width="320" height="240" viewBox="0 0 320 240"><defs><radialGradient id="g"><stop stop-color="#252045"/><stop offset="1" stop-color="#100e20"/></radialGradient></defs><rect width="320" height="240" fill="url(#g)"/><circle cx="103" cy="188" r="1.3" fill="#eee8ff" opacity="0.34"/><circle cx="257" cy="202" r="0.9" fill="#eee8ff" opacity="0.49"/><circle cx="265" cy="198" r="1.3" fill="#eee8ff" opacity="0.56"/><circle cx="112" cy="80" r="0.9" fill="#eee8ff" opacity="0.64"/><circle cx="256" cy="137" r="0.6" fill="#eee8ff" opacity="0.54"/><circle cx="283" cy="228" r="1.3" fill="#eee8ff" opacity="0.65"/><circle cx="279" cy="81" r="0.9" fill="#eee8ff" opacity="0.43"/><circle cx="148" cy="135" r="1.3" fill="#eee8ff" opacity="0.29"/><circle cx="262" cy="132" r="1.3" fill="#eee8ff" opacity="0.43"/><circle cx="15" cy="43" r="0.6" fill="#eee8ff" opacity="0.23"/><circle cx="132" cy="93" r="1.3" fill="#eee8ff" opacity="0.37"/><circle cx="284" cy="219" r="1.3" fill="#eee8ff" opacity="0.18"/><circle cx="266" cy="80" r="0.9" fill="#eee8ff" opacity="0.24"/><circle cx="179" cy="27" r="1.3" fill="#eee8ff" opacity="0.46"/><circle cx="97" cy="239" r="0.9" fill="#eee8ff" opacity="0.30"/><circle cx="94" cy="115" r="0.9" fill="#eee8ff" opacity="0.22"/><circle cx="51" cy="138" r="0.9" fill="#eee8ff" opacity="0.50"/><circle cx="125" cy="134" r="1.3" fill="#eee8ff" opacity="0.62"/><circle cx="95" cy="138" r="0.9" fill="#eee8ff" opacity="0.47"/><circle cx="304" cy="154" r="0.6" fill="#eee8ff" opacity="0.65"/><circle cx="203" cy="47" r="1.3" fill="#eee8ff" opacity="0.20"/><circle cx="80" cy="70" r="0.9" fill="#eee8ff" opacity="0.52"/><circle cx="108" cy="143" r="0.9" fill="#eee8ff" opacity="0.22"/><circle cx="185" cy="79" r="1.3" fill="#eee8ff" opacity="0.18"/><circle cx="150" cy="109" r="0.9" fill="#eee8ff" opacity="0.59"/><circle cx="217" cy="102" r="0.6" fill="#eee8ff" opacity="0.41"/><circle cx="7" cy="59" r="1.3" fill="#eee8ff" opacity="0.49"/><circle cx="157" cy="130" r="0.9" fill="#eee8ff" opacity="0.20"/><circle cx="214" cy="210" r="0.6" fill="#eee8ff" opacity="0.58"/><circle cx="108" cy="181" r="0.9" fill="#eee8ff" opacity="0.47"/><circle cx="225" cy="164" r="0.6" fill="#eee8ff" opacity="0.51"/><circle cx="54" cy="115" r="0.9" fill="#eee8ff" opacity="0.44"/><circle cx="159" cy="3" r="0.9" fill="#eee8ff" opacity="0.37"/><circle cx="158" cy="89" r="0.6" fill="#eee8ff" opacity="0.21"/><circle cx="151" cy="128" r="0.6" fill="#eee8ff" opacity="0.63"/><circle cx="105" cy="212" r="1.3" fill="#eee8ff" opacity="0.58"/><circle cx="256" cy="71" r="31" fill="#ffbb89" opacity=".2"/><ellipse cx="256" cy="71" rx="48" ry="11" transform="rotate(-28 256 71)" fill="none" stroke="#ffbb89" stroke-width="2" opacity=".45"/><text x="24" y="38" fill="#ffbb89" font-family="sans-serif" font-size="11" letter-spacing="2">FLASH</text><text fill="#f5f0ff" font-family="sans-serif" font-weight="700" font-size="21"><tspan x="24" y="132">Papa&#x27;s Mocharia</tspan></text></svg>