<svg xmlns="http://www.w3.org/2000/svg" width="320" height="240" viewBox="0 0 320 240"><defs><radialGradient id="g"><stop stop-color="#252045"/><stop offset="1" stop-color="#100e20"/></radialGradient></defs><rect width="320" height="240" fill="url(#g)"/><circle cx="278" cy="42" r="0.9" fill="#eee8ff" opacity="0.46"/><circle cx="169" cy="63" r="0.6" fill="#eee8ff" opacity="0.60"/><circle cx="60" cy="233" r="0.6" fill="#eee8ff" opacity="0.36"/><circle cx="153" cy="138" r="0.6" fill="#eee8ff" opacity="0.23"/><circle cx="224" cy="10" r="0.9" fill="#eee8ff" opacity="0.52"/><circle cx="308" cy="207" r="0.9" fill="#eee8ff" opacity="0.61"/><circle cx="163" cy="31" r="0.6" fill="#eee8ff" opacity="0.52"/><circle cx="74" cy="222" r="0.9" fill="#eee8ff" opacity="0.63"/><circle cx="25" cy="40" r="1.3" fill="#eee8ff" opacity="0.19"/><circle cx="73" cy="187" r="0.6" fill="#eee8ff" opacity="0.32"/><circle cx="23" cy="192" r="1.3" fill="#eee8ff" opacity="0.42"/><circle cx="129" cy="12" r="0.9" fill="#eee8ff" opacity="0.61"/><circle cx="23" cy="51" r="1.3" fill="#eee8ff" opacity="0.48"/><circle cx="211" cy="67" r="1.3" fill="#eee8ff" opacity="0.47"/><circle cx="278" cy="219" r="0.6" fill="#eee8ff" opacity="0.63"/><circle cx="303" cy="67" r="1.3" fill="#eee8ff" opacity="0.56"/><circle cx="125" cy="100" r="0.9" fill="#eee8ff" opacity="0.33"/><circle cx="63" cy="21" r="1.3" fill="#eee8ff" opacity="0.46"/><circle cx="313" cy="53" r="0.6" fill="#eee8ff" opacity="0.33"/><circle cx="3" cy="0" r="1.3" fill="#eee8ff" opacity="0.44"/><circle cx="187" cy="154" r="1.3" fill="#eee8ff" opacity="0.39"/><circle cx="265" cy="138" r="1.3" fill="#eee8ff" opacity="0.32"/><circle cx="137" cy="233" r="0.9" fill="#eee8ff" opacity="0.51"/><circle cx="176" cy="109" r="0.6" fill="#eee8ff" opacity="0.57"/><circle cx="301" cy="98" r="0.6" fill="#eee8ff" opacity="0.61"/><circle cx="12" cy="204" r="0.6" fill="#eee8ff" opacity="0.37"/><circle cx="272" cy="87" r="1.3" fill="#eee8ff" opacity="0.38"/><circle cx="239" cy="94" r="1.3" fill="#eee8ff" opacity="0.28"/><circle cx="41" cy="173" r="1.3" fill="#eee8ff" opacity="0.28"/><circle cx="84" cy="21" r="0.6" fill="#eee8ff" opacity="0.57"/><circle cx="120" cy="115" r="0.6" fill="#eee8ff" opacity="0.64"/><circle cx="31" cy="7" r="0.9" fill="#eee8ff" opacity="0.33"/><circle cx="268" cy="184" r="0.6" fill="#eee8ff" opacity="0.35"/><circle cx="50" cy="100" r="0.9" fill="#eee8ff" opacity="0.41"/><circle cx="196" cy="175" r="0.9" fill="#eee8ff" opacity="0.23"/><circle cx="246" cy="131" r="1.3" fill="#eee8ff" opacity="0.42"/><circle cx="256" cy="71" r="31" fill="#9cbcff" opacity=".2"/><ellipse cx="256" cy="71" rx="48" ry="11" transform="rotate(-28 256 71)" fill="none" stroke="#9cbcff" stroke-width="2" opacity=".45"/><text x="24" y="38" fill="#9cbcff" font-family="sans-serif" font-size="11" letter-spacing="2">FLASH</text><text fill="#f5f0ff" font-family="sans-serif" font-weight="700" font-size="21"><tspan x="24" y="132">Peace cup shoot</tspan></text></svg>