<svg xmlns="http://www.w3.org/2000/svg" width="320" height="240" viewBox="0 0 320 240"><defs><radialGradient id="g"><stop stop-color="#252045"/><stop offset="1" stop-color="#100e20"/></radialGradient></defs><rect width="320" height="240" fill="url(#g)"/><circle cx="300" cy="79" r="1.3" fill="#eee8ff" opacity="0.51"/><circle cx="159" cy="118" r="0.9" fill="#eee8ff" opacity="0.34"/><circle cx="135" cy="124" r="0.6" fill="#eee8ff" opacity="0.55"/><circle cx="134" cy="116" r="1.3" fill="#eee8ff" opacity="0.51"/><circle cx="153" cy="27" r="1.3" fill="#eee8ff" opacity="0.54"/><circle cx="176" cy="140" r="0.9" fill="#eee8ff" opacity="0.30"/><circle cx="267" cy="32" r="0.9" fill="#eee8ff" opacity="0.24"/><circle cx="16" cy="182" r="1.3" fill="#eee8ff" opacity="0.20"/><circle cx="229" cy="33" r="1.3" fill="#eee8ff" opacity="0.64"/><circle cx="290" cy="68" r="0.6" fill="#eee8ff" opacity="0.19"/><circle cx="102" cy="172" r="0.6" fill="#eee8ff" opacity="0.50"/><circle cx="208" cy="208" r="0.6" fill="#eee8ff" opacity="0.49"/><circle cx="117" cy="128" r="0.9" fill="#eee8ff" opacity="0.52"/><circle cx="303" cy="146" r="0.9" fill="#eee8ff" opacity="0.49"/><circle cx="98" cy="64" r="0.6" fill="#eee8ff" opacity="0.37"/><circle cx="22" cy="236" r="0.9" fill="#eee8ff" opacity="0.30"/><circle cx="3" cy="34" r="1.3" fill="#eee8ff" opacity="0.36"/><circle cx="216" cy="134" r="0.6" fill="#eee8ff" opacity="0.44"/><circle cx="225" cy="173" r="1.3" fill="#eee8ff" opacity="0.34"/><circle cx="307" cy="73" r="0.9" fill="#eee8ff" opacity="0.49"/><circle cx="240" cy="9" r="0.6" fill="#eee8ff" opacity="0.35"/><circle cx="235" cy="152" r="0.6" fill="#eee8ff" opacity="0.40"/><circle cx="314" cy="82" r="1.3" fill="#eee8ff" opacity="0.36"/><circle cx="100" cy="151" r="0.6" fill="#eee8ff" opacity="0.43"/><circle cx="133" cy="232" r="0.9" fill="#eee8ff" opacity="0.21"/><circle cx="152" cy="39" r="1.3" fill="#eee8ff" opacity="0.48"/><circle cx="53" cy="193" r="0.9" fill="#eee8ff" opacity="0.23"/><circle cx="293" cy="115" r="0.9" fill="#eee8ff" opacity="0.23"/><circle cx="202" cy="189" r="0.6" fill="#eee8ff" opacity="0.37"/><circle cx="132" cy="232" r="1.3" fill="#eee8ff" opacity="0.20"/><circle cx="4" cy="206" r="1.3" fill="#eee8ff" opacity="0.27"/><circle cx="297" cy="177" r="0.9" fill="#eee8ff" opacity="0.35"/><circle cx="209" cy="68" r="1.3" fill="#eee8ff" opacity="0.46"/><circle cx="239" cy="156" r="0.6" fill="#eee8ff" opacity="0.31"/><circle cx="37" cy="7" r="1.3" fill="#eee8ff" opacity="0.56"/><circle cx="208" cy="41" r="0.9" fill="#eee8ff" opacity="0.63"/><circle cx="256" cy="71" r="31" fill="#ffbb89" opacity=".2"/><ellipse cx="256" cy="71" rx="48" ry="11" transform="rotate(-28 256 71)" fill="none" stroke="#ffbb89" stroke-width="2" opacity=".45"/><text x="24" y="38" fill="#ffbb89" font-family="sans-serif" font-size="11" letter-spacing="2">COLEÇÃO G+</text><text fill="#f5f0ff" font-family="sans-serif" font-weight="700" font-size="21"><tspan x="24" y="132">Seven Days in</tspan><tspan x="24" y="157">Purgatory</tspan></text></svg>