<svg xmlns="http://www.w3.org/2000/svg" width="320" height="240" viewBox="0 0 320 240"><defs><radialGradient id="g"><stop stop-color="#252045"/><stop offset="1" stop-color="#100e20"/></radialGradient></defs><rect width="320" height="240" fill="url(#g)"/><circle cx="240" cy="160" r="1.3" fill="#eee8ff" opacity="0.16"/><circle cx="148" cy="197" r="0.6" fill="#eee8ff" opacity="0.62"/><circle cx="175" cy="163" r="0.6" fill="#eee8ff" opacity="0.26"/><circle cx="79" cy="203" r="0.9" fill="#eee8ff" opacity="0.57"/><circle cx="107" cy="170" r="1.3" fill="#eee8ff" opacity="0.63"/><circle cx="99" cy="157" r="1.3" fill="#eee8ff" opacity="0.16"/><circle cx="57" cy="13" r="0.9" fill="#eee8ff" opacity="0.29"/><circle cx="177" cy="149" r="0.9" fill="#eee8ff" opacity="0.23"/><circle cx="112" cy="44" r="0.9" fill="#eee8ff" opacity="0.35"/><circle cx="161" cy="214" r="1.3" fill="#eee8ff" opacity="0.23"/><circle cx="4" cy="122" r="0.6" fill="#eee8ff" opacity="0.57"/><circle cx="207" cy="222" r="0.9" fill="#eee8ff" opacity="0.54"/><circle cx="179" cy="152" r="0.6" fill="#eee8ff" opacity="0.41"/><circle cx="98" cy="106" r="1.3" fill="#eee8ff" opacity="0.50"/><circle cx="57" cy="219" r="1.3" fill="#eee8ff" opacity="0.37"/><circle cx="125" cy="190" r="0.6" fill="#eee8ff" opacity="0.63"/><circle cx="31" cy="32" r="1.3" fill="#eee8ff" opacity="0.33"/><circle cx="44" cy="81" r="1.3" fill="#eee8ff" opacity="0.34"/><circle cx="124" cy="91" r="0.9" fill="#eee8ff" opacity="0.30"/><circle cx="141" cy="83" r="0.6" fill="#eee8ff" opacity="0.39"/><circle cx="304" cy="153" r="0.6" fill="#eee8ff" opacity="0.58"/><circle cx="174" cy="201" r="0.6" fill="#eee8ff" opacity="0.24"/><circle cx="83" cy="207" r="1.3" fill="#eee8ff" opacity="0.34"/><circle cx="4" cy="152" r="0.9" fill="#eee8ff" opacity="0.57"/><circle cx="130" cy="111" r="0.6" fill="#eee8ff" opacity="0.24"/><circle cx="0" cy="232" r="1.3" fill="#eee8ff" opacity="0.33"/><circle cx="24" cy="42" r="1.3" fill="#eee8ff" opacity="0.47"/><circle cx="101" cy="83" r="0.9" fill="#eee8ff" opacity="0.15"/><circle cx="196" cy="85" r="0.9" fill="#eee8ff" opacity="0.61"/><circle cx="200" cy="107" r="0.9" fill="#eee8ff" opacity="0.46"/><circle cx="138" cy="226" r="0.6" fill="#eee8ff" opacity="0.60"/><circle cx="237" cy="93" r="0.9" fill="#eee8ff" opacity="0.18"/><circle cx="187" cy="198" r="0.6" fill="#eee8ff" opacity="0.43"/><circle cx="120" cy="110" r="0.9" fill="#eee8ff" opacity="0.57"/><circle cx="125" cy="42" r="0.9" fill="#eee8ff" opacity="0.53"/><circle cx="90" cy="153" r="0.9" fill="#eee8ff" opacity="0.25"/><circle cx="256" cy="71" r="31" fill="#ffbb89" opacity=".2"/><ellipse cx="256" cy="71" rx="48" ry="11" transform="rotate(-28 256 71)" fill="none" stroke="#ffbb89" stroke-width="2" opacity=".45"/><text x="24" y="38" fill="#ffbb89" font-family="sans-serif" font-size="11" letter-spacing="2">FLASH</text><text fill="#f5f0ff" font-family="sans-serif" font-weight="700" font-size="21"><tspan x="24" y="132">Smileys War</tspan></text></svg>